<?xml version="1.0" encoding="iso-8859-1"?>
<!-- Generator: Adobe Illustrator 18.1.1, SVG Export Plug-In . SVG Version: 6.00 Build 0)  -->
<svg version="1.1" id="Capa_1" xmlns="http://www.w3.org/2000/svg" xmlns:xlink="http://www.w3.org/1999/xlink" x="0px" y="0px"
	 viewBox="0 0 19.58 19.58" style="enable-background:new 0 0 19.58 19.58;" xml:space="preserve">
<g>
	<path style="fill:#010002;" d="M18.027,15.578H6.33c-0.831,0-1.506-0.675-1.506-1.507c0-0.833,0.675-1.508,1.506-1.508h11.696
		c0.076,0,0.151,0.009,0.227,0.02V9.649c-0.075,0.011-0.15,0.019-0.227,0.019H6.33c-0.831,0-1.506-0.675-1.506-1.508
		c0-0.831,0.675-1.506,1.506-1.506h11.696c0.076,0,0.151,0.008,0.227,0.018V5.545C18.253,3.947,14.63,0,14.63,0H4.824
		c0,0-3.497,3.947-3.497,5.545v11.14c0,1.599,1.295,2.895,2.895,2.895H15.36c1.597,0,2.894-1.296,2.894-2.895v-1.126
		C18.179,15.569,18.104,15.578,18.027,15.578z M14.8,4.25c0.084,0,0.151,0.067,0.151,0.15c0,0.084-0.067,0.151-0.151,0.151
		c-0.083,0-0.149-0.067-0.149-0.151C14.65,4.317,14.717,4.25,14.8,4.25z M13.655,1.855h0.06l0.03,0.052l-0.03,0.054h-0.06
		l-0.031-0.054L13.655,1.855z M10.393,1.339c0.199,0,0.36,0.161,0.36,0.361s-0.161,0.361-0.36,0.361
		C10.192,2.062,10.032,1.9,10.032,1.7S10.192,1.339,10.393,1.339z M10.092,3.949c0.166,0,0.302,0.135,0.302,0.301
		s-0.136,0.302-0.302,0.302c-0.168,0-0.302-0.136-0.302-0.302S9.924,3.949,10.092,3.949z M7.416,2.863
		c0.199,0,0.36,0.162,0.36,0.361c0,0.201-0.161,0.363-0.36,0.363c-0.2,0-0.362-0.162-0.362-0.363
		C7.054,3.025,7.216,2.863,7.416,2.863z M5.649,1.417c0.156,0,0.283,0.127,0.283,0.283S5.806,1.983,5.649,1.983
		S5.366,1.856,5.366,1.7S5.493,1.417,5.649,1.417z"/>
</g>
<g>
</g>
<g>
</g>
<g>
</g>
<g>
</g>
<g>
</g>
<g>
</g>
<g>
</g>
<g>
</g>
<g>
</g>
<g>
</g>
<g>
</g>
<g>
</g>
<g>
</g>
<g>
</g>
<g>
</g>
</svg>
